<?xml version="1.0" encoding="UTF-8"?><svg xmlns="http://www.w3.org/2000/svg" xmlns:xlink="http://www.w3.org/1999/xlink" viewBox="0 0 4264.96 2816.32"><defs><style>.n{fill:url(#l);}.o{fill:url(#m);}.p{fill:url(#f);}.q{fill:url(#g);}.r{fill:url(#i);}.s{fill:url(#h);}.t{fill:url(#d);}.u{fill:url(#e);}.v{fill:none;}.w{fill:url(#j);}.x{fill:#363537;}.y{fill:url(#k);}</style><linearGradient id="d" x1="2851.59" y1="759.99" x2="2221.18" y2="129.58" gradientTransform="matrix(1, 0, 0, 1, 0, 0)" gradientUnits="userSpaceOnUse"><stop offset="0" stop-color="#d4145a"/><stop offset=".96" stop-color="#fbb03b"/></linearGradient><linearGradient id="e" x1="8636.67" y1="-6254.6" x2="7664.53" y2="-7226.73" gradientTransform="translate(-1539.37 3016.84) rotate(13.6) scale(.62 .55) skewX(24.57)" gradientUnits="userSpaceOnUse"><stop offset=".15" stop-color="#d4145a"/><stop offset=".44" stop-color="#fbb03b"/></linearGradient><linearGradient id="f" x1="1748.67" y1="2178.72" x2="1118.26" y2="1548.31" xlink:href="#d"/><linearGradient id="g" x1="3353.67" y1="2540.3" x2="1445.36" y2="631.99" gradientTransform="matrix(1, 0, 0, 1, 0, 0)" gradientUnits="userSpaceOnUse"><stop offset=".26" stop-color="#fbb03b"/><stop offset=".65" stop-color="#d4145a"/></linearGradient><linearGradient id="h" x1="-501.93" y1="1170.03" x2="104.86" y2="1776.82" gradientTransform="translate(-2455.49 -2490.08) rotate(-45) scale(.74 4)" xlink:href="#g"/><linearGradient id="i" x1="6106.47" y1="-3299.12" x2="5134.34" y2="-4271.26" xlink:href="#e"/><linearGradient id="j" x1="2331.85" y1="2881.87" x2="1553.51" y2="2103.53" gradientTransform="matrix(1, 0, 0, 1, 0, 0)" gradientUnits="userSpaceOnUse"><stop offset=".13" stop-color="#fbb03b"/><stop offset=".8" stop-color="#d4145a"/></linearGradient><linearGradient id="k" x1="3412.56" y1="1484.03" x2="2638.72" y2="710.19" xlink:href="#j"/><linearGradient id="l" x1="2685.06" y1="981.96" x2="2672.05" y2="972.99" xlink:href="#g"/><linearGradient id="m" x1="-14261.45" y1="2862.06" x2="-13819.35" y2="3304.15" gradientTransform="translate(4231.69 17102.8) rotate(135) scale(.74 4)" xlink:href="#g"/></defs><g id="a"/><g id="b"/><g id="c"><g><path class="t" d="M2568.72,1020.95c.57-188.4,1.14-376.79,1.7-565.19,26.5-25.53,53.01-51.05,79.51-76.58,98.74,.16,197.48,.32,296.22,.49,1.2-48.55,2.41-97.09,3.62-145.64-148.81,.4-297.61,.8-446.42,1.2-25.87,26.93-51.74,53.86-77.61,80.79,.11,214.2,.23,428.41,.34,642.61,28.33,24.48,56.67,48.96,85,73.43l57.64-11.1Z"/><path class="u" d="M2505.95,237.64c-25.34,25.87-50.69,51.75-76.03,77.62l140.51,140.51c26.5-25.53,53.01-51.05,79.51-76.58l-143.98-141.54Z"/><path class="p" d="M1483.54,2421.95c.57-188.4,1.14-376.79,1.7-565.19,26.5-25.53,53.01-51.05,79.51-76.58,61.17,.48,122.34,.95,183.5,1.43,14.07-46.07,28.14-92.14,42.21-138.21-124.1-2.39-248.2-4.79-372.3-7.18-25.87,26.93-51.74,53.86-77.61,80.79,1.47,211.7,2.93,423.4,4.4,635.1l80.94,80.94,57.64-11.1Z"/><path class="x" d="M1930.5,1396.65h-659.46c-60.79,64.3-121.57,128.6-182.36,192.9-.31,292.21-.62,584.42-.93,876.63,68.14,69.56,136.29,139.13,204.43,208.69h626.24c-.11,0-.77-.17,5.01-5.1l201.12-205.31v-873.31c-64.68-64.84-129.36-129.67-194.04-194.51Zm-74.22,943.97l-79.67,81.33h-353.62l-78.97-80.61,.7-625.08,76.03-77.62h356.69l78.83,80.47v621.51Z"/><path class="x" d="M3012.21,0h-659.46c-60.79,64.3-121.57,128.6-182.36,192.9-1.53,305.51-3.07,611.02-4.6,916.53,69.37,56.26,138.73,112.53,208.1,168.79h626.24c-.12,0-.77-.17,5.01-5.1l201.12-205.31V194.51c-64.68-64.84-129.36-129.67-194.04-194.51Zm-74.22,943.97l-79.67,81.33h-353.62l-78.97-80.61,.7-625.08,76.03-77.62h356.69l78.83,80.47V943.97Z"/><path class="q" d="M3340.43,328.47c.4,290.4,.8,580.8,1.19,871.19-71.57,70.72-143.14,141.43-214.71,212.15-187.99-.26-375.98-.52-563.97-.77-100.19,96.58-200.39,193.16-300.58,289.73-1.04,298.78-2.07,597.55-3.11,896.33-71.37,70.08-142.74,140.16-214.11,210.24-208.42-.75-416.84-1.49-625.26-2.24-43.06-43.06-86.12-86.12-129.18-129.18,209.24-.35,418.48-.7,627.72-1.04,68.71-70.13,137.42-140.27,206.12-210.4,.15-275.4,.29-550.79,.44-826.19-86.99,87.3-173.99,174.6-260.98,261.89-22.2-19.94-44.4-39.89-66.6-59.83l842.5-842.62c30.75,9.18,61.51,18.37,92.26,27.55l-246.65,252.95h514.6c68.71-70.13,137.42-140.27,206.12-210.4V194.51c44.73,44.65,89.45,89.31,134.18,133.96Z"/><path class="s" d="M1864,1900.17c-2.57,42.79-5.14,85.58-7.71,128.36-63.54-62.7-127.07-125.4-190.61-188.1,45.71-.03,91.43-.06,137.14-.09,20.39,19.94,40.78,39.89,61.18,59.83Z"/><path class="r" d="M1420.77,1638.63c-25.34,25.87-50.69,51.75-76.03,77.62l140.51,140.51c26.5-25.53,53.01-51.05,79.51-76.58l-143.98-141.54Z"/><path class="w" d="M2259.25,2597.1c-71.37,70.08-142.74,140.16-214.11,210.24-44.15-44.15-88.3-88.3-132.45-132.45l211.86-210.41c44.9,44.21,89.8,88.42,134.71,132.63Z"/><path class="y" d="M3341.62,1199.66c-71.57,70.72-143.14,141.43-214.71,212.15-42.26-44.53-84.53-89.06-126.79-133.6,68.71-70.13,137.42-140.27,206.12-210.4,45.12,43.95,90.25,87.9,135.37,131.85Z"/><line class="v" x1="2116.68" y1="2467.91" x2="2388.52" y2="2739.75"/><line class="v" x1="2961.13" y1="1184.67" x2="3158.75" y2="1382.3"/><path class="x" d="M2129.31,1058.11c-69.86,74.62-139.72,149.24-209.58,223.86-222.38,.07-444.72,.16-667.1,.23-18.2,0-36.37,.03-54.57,.03-36.8,0-73.57,.03-110.36,.03l-23.94-23.66,1.75-975.42,.46-260.96,22.42-22.22h240.12l19.06,18.86-.2,170.44-.1,104.75v.2l-.82,722.68,18.6,18.37c56.72-.33,113.46-.55,170.21-.72,138.66-.49,277.35-.55,416-.2,59.32,.13,118.67,.36,178.03,.65,0,7.69,.02,15.38,.02,23.07Z"/><path class="x" d="M893.07,616.83l64.08-65.76V181.79L779.91,0H27.68L5.11,25.07V1256.22l22.58,23.15H818.94l192.85-197.79v-343l-118.72-121.76Zm-200.94-148.36l-49.75,51.03H293.59l-17.47-17.92-.35-229.47c6.94-7.15,13.92-14.28,20.9-21.43,115.64-.29,231.31-.59,346.96-.85l48.51,49.72v168.91ZM275.77,1016.83v-240.95c6.82-6.99,13.63-14.02,20.48-21.01h388.34c20.23,20.72,40.43,41.43,60.63,62.18v151.32l-63.73,65.4c-74.8,.16-149.57,.33-224.37,.49-54.89,.13-109.81,.26-164.69,.36-5.55-5.92-11.1-11.84-16.65-17.79Z"/><path class="x" d="M4250.72,1249.9l-14.41,23.99-3.71,6.14h-246.33l-20.15-7.74-178.15-313.21-107.27-188.56-103-1.27-32.71,36.3s-2.29,436.55,0,454.08c-6.41,7.12-12.85,14.26-19.27,21.38h-216.41l-19-21.05V25.17c5.82-10.31,19-25.17,19-25.17h216.8l20.79,23.04V487.11l29.88,33.16,106.24,1.11s12.35-23.73,32.12-61.79c54.77-105.26,166.44-320.03,230.8-443.83l24.03-15.76h235.59l4.85,9.82,13.94,28.33-80.53,151.15-28,52.58-.06,.1-213.27,400.39,348.21,607.52Z"/><path class="x" d="M3224.3,2120.22v342.64l-7.88,18-79.17,86.16-99.12,107.86h-628.36c-71.84-70.67-143.67-141.34-215.51-212.01v-159.35c10.12-11.7,20.21-23.39,30.3-35.12h216.09c5.37,7.86,10.75,15.72,16.12,23.59l6.72,9.84c0,27.97-.03,55.94-.03,83.95,13.52,15.14,27.05,30.24,40.57,45.38h419.97l42.51-46.26v-185.01l-42.72-46.46c-173.23-.83-346.46-1.67-519.69-2.5-63.93-62.56-127.87-125.13-191.8-187.69l-5.05-22.46,.42-319.93,9.43-23.55,169.04-183.97,28.54-16.05h595.9l198.46,195.5,2.29,28.08v175.17l-21.05,22.9h-217.46l-20.39-22.16v-98.4l-40.96-44.6h-406.65l-41.35,44.99v161.95l42.93,46.68h524.67l15.73,7.7,171.43,186.51,1.34,4.09,4.75,14.55Z"/><polygon class="x" points="4264.96 1421.44 4264.96 1621.17 4244.28 1643.54 3924.11 1643.54 3908.38 1660.56 3908.38 2645.04 3880.77 2674.87 3659.64 2674.87 3636.5 2649.87 3636.5 1657.09 3623.31 1642.8 3302.76 1642.8 3283.61 1622.11 3283.4 1618.61 3283.4 1418.75 3302.25 1398.35 4243.62 1398.35 4264.96 1421.44"/><path class="x" d="M1011.79,1415.39v1232.73l-26.97,27.52h-218.39l-21.81-22.26v-476.52l-25.89-26.45H303.3l-30.02,30.64v475.61c-5.95,6.11-11.94,12.19-17.89,18.3-24.42-.03-48.84-.03-73.26-.07-52.63-.03-105.23-.1-157.86-.13l-24.26-24.76V1422.28l26.71-27.26H246.5l26.24,26.78v457.18l27.32,27.88h417.7l27.22-27.82v-462.77l19.42-19.79h228.83l18.56,18.91Z"/><path class="x" d="M2641.52,893.8c-.54,34.64-1.08,69.28-1.62,103.92-249.73,260.16-353.02,366.99-380.13,394.16-6.63,6.65-14.65,14.68-14.65,14.68-26.08,26.1-52.16,52.22-78.23,78.32-120.76,119.13-241.5,238.26-362.25,357.38-45.23,.42-90.46,.85-135.69,1.27-20.52-20.6-41.03-41.21-61.55-61.82,.7-47.22,1.39-94.43,2.08-141.65l248.76-248.19,82.9-82.71c.5-.49,.98-.98,1.48-1.47,.78-.77,94.68-94.08,102.14-101.49,25.51-25.37,111.14-111.41,381.1-383.93,47.93-.39,95.85-.77,143.78-1.16,23.96,24.23,47.91,48.46,71.87,72.69Z"/><path class="n" d="M2677.76,978.24c-.23-1.03-.46-2.07-.69-3.1"/><path class="o" d="M2639.9,997.72c.54-34.64,1.08-69.28,1.62-103.92,43.99,43.87,87.97,87.74,131.96,131.61-32.48-.11-64.96-.23-97.44-.34-12.05-9.12-24.09-18.23-36.14-27.35Z"/></g></g></svg>