<?xml version="1.0" encoding="UTF-8"?><svg xmlns="http://www.w3.org/2000/svg" xmlns:xlink="http://www.w3.org/1999/xlink" viewBox="0 0 212.79 257.95"><defs><style>.n{fill:url(#l);}.o{fill:url(#m);}.p{fill:url(#f);}.q{fill:url(#g);}.r{fill:url(#i);}.s{fill:url(#h);}.t{opacity:.49;}.u{fill:url(#d);}.v{fill:url(#e);}.w{fill:none;}.x{fill:url(#j);}.y{fill:#363537;}.a`{fill:url(#k);}</style><linearGradient id="d" x1="161.55" y1="69.61" x2="103.81" y2="11.87" gradientTransform="matrix(1, 0, 0, 1, 0, 0)" gradientUnits="userSpaceOnUse"><stop offset="0" stop-color="#d4145a"/><stop offset=".96" stop-color="#fbb03b"/></linearGradient><linearGradient id="e" x1="2514.77" y1="-2617.46" x2="2425.73" y2="-2706.5" gradientTransform="translate(-975.41 1249.38) rotate(13.6) scale(.62 .55) skewX(24.57)" gradientUnits="userSpaceOnUse"><stop offset=".15" stop-color="#d4145a"/><stop offset=".44" stop-color="#fbb03b"/></linearGradient><linearGradient id="f" x1="60.53" y1="199.55" x2="2.79" y2="141.81" xlink:href="#d"/><linearGradient id="g" x1="207.54" y1="232.67" x2="32.75" y2="57.88" gradientTransform="matrix(1, 0, 0, 1, 0, 0)" gradientUnits="userSpaceOnUse"><stop offset=".26" stop-color="#fbb03b"/><stop offset=".65" stop-color="#d4145a"/></linearGradient><linearGradient id="h" x1="-4473.16" y1="-2761.16" x2="-4417.59" y2="-2705.58" gradientTransform="translate(10101.63 5588.87) rotate(-45) scale(.74 4)" xlink:href="#g"/><linearGradient id="i" x1="2283.02" y1="-2346.77" x2="2193.99" y2="-2435.81" xlink:href="#e"/><linearGradient id="j" x1="113.95" y1="263.95" x2="42.66" y2="192.66" gradientTransform="matrix(1, 0, 0, 1, 0, 0)" gradientUnits="userSpaceOnUse"><stop offset=".13" stop-color="#fbb03b"/><stop offset=".8" stop-color="#d4145a"/></linearGradient><linearGradient id="k" x1="212.93" y1="135.92" x2="142.05" y2="65.05" xlink:href="#j"/><linearGradient id="l" x1="146.3" y1="89.94" x2="145.11" y2="89.12" xlink:href="#g"/><linearGradient id="m" x1="-8551.39" y1="-1593.28" x2="-8510.9" y2="-1552.79" gradientTransform="translate(-8737.13 84.44) rotate(135) scale(.74 4)" xlink:href="#g"/></defs><g id="a"/><g id="b"/><g id="c"><g class="t"><path class="u" d="M135.64,93.51c.05-17.26,.1-34.51,.16-51.77,2.43-2.34,4.85-4.68,7.28-7.01l27.13,.04c.11-4.45,.22-8.89,.33-13.34-13.63,.04-27.26,.07-40.89,.11-2.37,2.47-4.74,4.93-7.11,7.4l.03,58.86,7.79,6.73,5.28-1.02Z"/><path class="v" d="M129.89,21.77c-2.32,2.37-4.64,4.74-6.96,7.11l12.87,12.87c2.43-2.34,4.85-4.68,7.28-7.01l-13.19-12.96Z"/><path class="p" d="M36.25,221.83c.05-17.26,.1-34.51,.16-51.77,2.43-2.34,4.85-4.68,7.28-7.01,5.6,.04,11.2,.09,16.81,.13,1.29-4.22,2.58-8.44,3.87-12.66-11.37-.22-22.73-.44-34.1-.66-2.37,2.47-4.74,4.93-7.11,7.4,.13,19.39,.27,38.78,.4,58.17l7.41,7.41,5.28-1.02Z"/><path class="y" d="M77.19,127.92H16.79c-5.57,5.89-11.14,11.78-16.7,17.67l-.08,80.29c6.24,6.37,12.48,12.74,18.72,19.11h57.36s-.07-.02,.46-.47l18.42-18.8v-79.99c-5.92-5.94-11.85-11.88-17.77-17.81Zm-6.8,86.46l-7.3,7.45H30.71l-7.23-7.38,.06-57.25,6.96-7.11H63.17l7.22,7.37v56.92Z"/><path class="y" d="M176.26,0h-60.4c-5.57,5.89-11.14,11.78-16.7,17.67l-.42,83.94c6.35,5.15,12.71,10.31,19.06,15.46h57.36s-.07-.02,.46-.47l18.42-18.8V17.81c-5.92-5.94-11.85-11.88-17.77-17.81Zm-6.8,86.46l-7.3,7.45h-32.39l-7.23-7.38,.06-57.25,6.96-7.11h32.67l7.22,7.37v56.92Z"/><path class="q" d="M206.32,30.08c.04,26.6,.07,53.2,.11,79.79-6.55,6.48-13.11,12.95-19.66,19.43-17.22-.02-34.44-.05-51.65-.07-9.18,8.85-18.35,17.69-27.53,26.54l-.28,82.09c-6.54,6.42-13.07,12.84-19.61,19.26l-57.27-.2c-3.94-3.94-7.89-7.89-11.83-11.83,19.16-.03,38.33-.06,57.49-.1,6.29-6.42,12.59-12.85,18.88-19.27,.01-25.22,.03-50.45,.04-75.67-7.97,8-15.94,15.99-23.9,23.99-2.03-1.83-4.07-3.65-6.1-5.48l77.16-77.18c2.82,.84,5.63,1.68,8.45,2.52l-22.59,23.17h47.13c6.29-6.42,12.59-12.85,18.88-19.27V17.81c4.1,4.09,8.19,8.18,12.29,12.27Z"/><path class="s" d="M71.1,174.04c-.24,3.92-.47,7.84-.71,11.76-5.82-5.74-11.64-11.49-17.46-17.23,4.19,0,8.37,0,12.56,0,1.87,1.83,3.74,3.65,5.6,5.48Z"/><path class="r" d="M30.5,150.08c-2.32,2.37-4.64,4.74-6.96,7.11l12.87,12.87c2.43-2.34,4.85-4.68,7.28-7.01l-13.19-12.96Z"/><path class="x" d="M107.3,237.87c-6.54,6.42-13.07,12.84-19.61,19.26-4.04-4.04-8.09-8.09-12.13-12.13l19.4-19.27c4.11,4.05,8.23,8.1,12.34,12.15Z"/><path class="a`" d="M206.43,109.88c-6.55,6.48-13.11,12.95-19.66,19.43-3.87-4.08-7.74-8.16-11.61-12.24,6.29-6.42,12.59-12.85,18.88-19.27,4.13,4.03,8.27,8.05,12.4,12.08Z"/><line class="w" x1="94.24" y1="226.04" x2="119.14" y2="250.93"/><line class="w" x1="171.58" y1="108.5" x2="189.68" y2="126.6"/><path class="y" d="M142.31,81.86c-.05,3.17-.1,6.35-.15,9.52-22.87,23.83-32.33,33.61-34.82,36.1-.61,.61-1.34,1.34-1.34,1.34-2.39,2.39-4.78,4.78-7.17,7.17-11.06,10.91-22.12,21.82-33.18,32.73-4.14,.04-8.29,.08-12.43,.12-1.88-1.89-3.76-3.77-5.64-5.66,.06-4.33,.13-8.65,.19-12.97l22.78-22.73,7.59-7.58s.09-.09,.14-.13c.07-.07,8.67-8.62,9.36-9.3,2.34-2.32,10.18-10.2,34.91-35.16,4.39-.04,8.78-.07,13.17-.11,2.19,2.22,4.39,4.44,6.58,6.66Z"/><path class="n" d="M145.63,89.6l-.06-.28"/><path class="o" d="M142.16,91.38c.05-3.17,.1-6.35,.15-9.52,4.03,4.02,8.06,8.04,12.09,12.05-2.97-.01-5.95-.02-8.92-.03-1.1-.84-2.21-1.67-3.31-2.51Z"/></g></g></svg>