<svg xmlns="http://www.w3.org/2000/svg" xmlns:xlink="http://www.w3.org/1999/xlink" width="500" zoomAndPan="magnify" viewBox="0 0 375 374.999991" height="500" preserveAspectRatio="xMidYMid meet" version="1.0"><path fill="#ffffff" d="M 250.746094 124.253906 L 250.746094 0 L 124.253906 0 L 124.253906 124.253906 L 0 124.253906 L 0 250.746094 L 124.253906 250.746094 L 124.253906 375 L 250.746094 375 L 250.746094 250.746094 L 375 250.746094 L 375 124.253906 Z M 152.585938 2.238281 L 222.414062 2.238281 C 236.828125 2.238281 248.507812 13.917969 248.507812 28.328125 L 248.507812 98.160156 C 248.507812 112.574219 236.828125 124.253906 222.414062 124.253906 L 152.585938 124.253906 C 138.171875 124.253906 126.492188 112.574219 126.492188 98.160156 L 126.492188 28.328125 C 126.492188 13.917969 138.171875 2.238281 152.585938 2.238281 Z M 222.414062 248.507812 L 152.585938 248.507812 C 138.171875 248.507812 126.492188 236.828125 126.492188 222.414062 L 126.492188 152.585938 C 126.492188 138.171875 138.171875 126.492188 152.585938 126.492188 L 222.414062 126.492188 C 236.828125 126.492188 248.507812 138.171875 248.507812 152.585938 L 248.507812 222.414062 C 248.507812 236.828125 236.828125 248.507812 222.414062 248.507812 Z M 2.238281 222.414062 L 2.238281 152.585938 C 2.238281 138.171875 13.917969 126.492188 28.328125 126.492188 L 98.160156 126.492188 C 112.574219 126.492188 124.253906 138.171875 124.253906 152.585938 L 124.253906 222.414062 C 124.253906 236.828125 112.574219 248.507812 98.160156 248.507812 L 28.328125 248.507812 C 13.917969 248.507812 2.238281 236.828125 2.238281 222.414062 Z M 222.414062 372.761719 L 152.585938 372.761719 C 138.171875 372.761719 126.492188 361.082031 126.492188 346.671875 L 126.492188 276.839844 C 126.492188 262.425781 138.171875 250.746094 152.585938 250.746094 L 222.414062 250.746094 C 236.828125 250.746094 248.507812 262.425781 248.507812 276.839844 L 248.507812 346.671875 C 248.507812 361.082031 236.828125 372.761719 222.414062 372.761719 Z M 346.671875 248.507812 L 276.839844 248.507812 C 262.425781 248.507812 250.746094 236.828125 250.746094 222.414062 L 250.746094 152.585938 C 250.746094 138.171875 262.425781 126.492188 276.839844 126.492188 L 346.671875 126.492188 C 361.082031 126.492188 372.761719 138.171875 372.761719 152.585938 L 372.761719 222.414062 C 372.761719 236.828125 361.082031 248.507812 346.671875 248.507812 Z M 346.671875 248.507812 " fill-opacity="1" fill-rule="nonzero"/></svg>